P3
3 4
255
   0   0 127   0   0 220   0  57 255   0 150 255	   0 243 255  81 255 173 173 255  81 255 243   0	 255 150   0 255  57   0 220   0   0 127   0   0	
